<svg width="141" height="17" viewBox="0 0 141 17" fill="none" xmlns="http://www.w3.org/2000/svg">
<path d="M7.8846 2.59176H2.51075V11.6843H0V0.263672H10.3954V11.6843H7.8846V2.59176Z" fill="#F52A13"/>
<path d="M12.8389 0.263551H15.3496V1.51543C15.8635 1.03225 16.4141 0.658885 17.0014 0.395327C17.5887 0.131776 18.2494 0 18.9836 0C19.8058 0 20.562 0.153741 21.2521 0.461215C21.9569 0.754053 22.5588 1.17134 23.058 1.7131C23.5573 2.2402 23.9464 2.86983 24.2254 3.60186C24.5043 4.31935 24.6438 5.10269 24.6438 5.95188C24.6438 6.83041 24.4896 7.63572 24.1813 8.36781C23.8877 9.08524 23.4838 9.70754 22.9699 10.2347C22.4561 10.7471 21.8394 11.1498 21.12 11.4426C20.4152 11.7354 19.659 11.8819 18.8514 11.8819C18.132 11.8819 17.4859 11.7721 16.9133 11.5524C16.3407 11.3328 15.8195 11.0253 15.3496 10.63V16.0767H12.8389V0.263551ZM18.4771 9.55381C18.9763 9.55381 19.4388 9.47329 19.8646 9.31219C20.305 9.15115 20.6868 8.9169 21.0098 8.60943C21.3328 8.2873 21.5824 7.90661 21.7586 7.46731C21.9495 7.01341 22.045 6.50097 22.045 5.92998C22.045 5.40286 21.9642 4.91969 21.8027 4.48039C21.6412 4.02649 21.4063 3.6458 21.0979 3.33834C20.8043 3.0162 20.4519 2.76728 20.0408 2.59164C19.6296 2.41593 19.1745 2.32805 18.6753 2.32805C17.9117 2.32805 17.2363 2.51105 16.649 2.87714C16.0764 3.24315 15.6433 3.68245 15.3496 4.19489V7.66499C15.6433 8.27999 16.0617 8.7485 16.605 9.07063C17.1482 9.39277 17.7723 9.55381 18.4771 9.55381Z" fill="#F52A13"/>
<path d="M25.9482 5.95188C25.9482 5.08802 26.0951 4.29738 26.3887 3.57996C26.6824 2.84786 27.1009 2.21824 27.6441 1.69113C28.1874 1.16402 28.8334 0.754053 29.5823 0.461215C30.3311 0.153741 31.1606 0 32.071 0C32.9666 0 33.7889 0.153741 34.5377 0.461215C35.3012 0.754053 35.9545 1.16402 36.4978 1.69113C37.0411 2.21824 37.4596 2.84786 37.7532 3.57996C38.0616 4.29738 38.2157 5.08802 38.2157 5.95188C38.2157 6.8158 38.0616 7.61375 37.7532 8.34584C37.4596 9.06333 37.0411 9.68557 36.4978 10.2127C35.9545 10.7398 35.3012 11.1498 34.5377 11.4426C33.7889 11.7354 32.9666 11.8819 32.071 11.8819C31.1753 11.8819 30.3531 11.7354 29.6043 11.4426C28.8554 11.1498 28.2094 10.7398 27.6661 10.2127C27.1229 9.68557 26.6971 9.06333 26.3887 8.34584C26.0951 7.61375 25.9482 6.8158 25.9482 5.95188ZM28.5471 5.95188C28.5471 6.46439 28.6279 6.94026 28.7894 7.37949C28.9656 7.81872 29.2078 8.19941 29.5162 8.52155C29.8245 8.84368 30.1916 9.09991 30.6174 9.29028C31.0579 9.46592 31.5424 9.55381 32.071 9.55381C32.5996 9.55381 33.0767 9.47329 33.5025 9.31219C33.943 9.13648 34.3174 8.89493 34.6258 8.58746C34.9341 8.26532 35.1764 7.88464 35.3526 7.44541C35.5287 7.00611 35.6168 6.50827 35.6168 5.95188C35.6168 5.39549 35.5214 4.89771 35.3306 4.45842C35.1544 4.00452 34.9048 3.62383 34.5817 3.31636C34.2587 2.99423 33.8843 2.75267 33.4585 2.59164C33.0327 2.41593 32.5702 2.32805 32.071 2.32805C31.5718 2.32805 31.1019 2.41593 30.6614 2.59164C30.2356 2.75267 29.8612 2.99423 29.5382 3.31636C29.2299 3.62383 28.9876 4.00452 28.8114 4.45842C28.6352 4.89771 28.5471 5.39549 28.5471 5.95188Z" fill="#F52A13"/>
<path d="M38.8857 9.35625H40.2116C40.7273 8.69737 41.0735 7.94331 41.2503 7.09412C41.4271 6.24486 41.5154 5.28582 41.5154 4.21698V0.263672H50.7525V9.35625H52.3657V14.2979H50.0233V11.6843H41.2282V14.2979H38.8857V9.35625ZM48.2333 9.35625V2.59176H43.902V5.51277C43.902 6.21559 43.8063 6.91841 43.6147 7.62117C43.4233 8.30939 43.1581 8.88775 42.8193 9.35625H48.2333Z" fill="#3981F1"/>
<path d="M52.877 5.95188C52.877 5.08802 53.0243 4.29738 53.3189 3.57996C53.6135 2.84786 54.0334 2.21824 54.5785 1.69113C55.1236 1.16402 55.7718 0.754053 56.5231 0.461215C57.2745 0.153741 58.1069 0 59.0203 0C59.9189 0 60.7439 0.153741 61.4952 0.461215C62.2613 0.754053 62.9169 1.16402 63.462 1.69113C64.0071 2.21824 64.427 2.84786 64.7216 3.57996C65.031 4.29738 65.1856 5.08802 65.1856 5.95188C65.1856 6.8158 65.031 7.61375 64.7216 8.34584C64.427 9.06333 64.0071 9.68557 63.462 10.2127C62.9169 10.7398 62.2613 11.1498 61.4952 11.4426C60.7439 11.7354 59.9189 11.8819 59.0203 11.8819C58.1216 11.8819 57.2965 11.7354 56.5452 11.4426C55.7939 11.1498 55.1457 10.7398 54.6006 10.2127C54.0555 9.68557 53.6283 9.06333 53.3189 8.34584C53.0243 7.61375 52.877 6.8158 52.877 5.95188ZM55.4845 5.95188C55.4845 6.46439 55.5655 6.94026 55.7276 7.37949C55.9044 7.81872 56.1475 8.19941 56.4568 8.52155C56.7662 8.84368 57.1345 9.09991 57.5618 9.29028C58.0037 9.46592 58.4899 9.55381 59.0203 9.55381C59.5506 9.55381 60.0294 9.47329 60.4566 9.31219C60.8986 9.13648 61.2742 8.89493 61.5837 8.58746C61.893 8.26532 62.1361 7.88464 62.3129 7.44541C62.4896 7.00611 62.5781 6.50827 62.5781 5.95188C62.5781 5.39549 62.4823 4.89771 62.2908 4.45842C62.114 4.00452 61.8636 3.62383 61.5394 3.31636C61.2153 2.99423 60.8397 2.75267 60.4125 2.59164C59.9852 2.41593 59.5212 2.32805 59.0203 2.32805C58.5194 2.32805 58.0479 2.41593 57.606 2.59164C57.1787 2.75267 56.803 2.99423 56.4789 3.31636C56.1696 3.62383 55.9265 4.00452 55.7497 4.45842C55.5729 4.89771 55.4845 5.39549 55.4845 5.95188Z" fill="#3981F1"/>
<path d="M66.7451 0.263672H69.2643V4.89783L74.2363 0.263672H77.5289L71.938 5.42495L77.728 11.6843H74.5018L70.1043 6.98426L69.2643 7.79687V11.6843H66.7451V0.263672Z" fill="#3981F1"/>
<path d="M78.5234 0.263672H89.3518V2.59176H85.1971V11.6843H82.6782V2.59176H78.5234V0.263672Z" fill="#3981F1"/>
<path d="M89.9014 5.95188C89.9014 5.08802 90.0489 4.29738 90.3439 3.57996C90.6382 2.84786 91.0579 2.21824 91.603 1.69113C92.148 1.16402 92.7964 0.754053 93.5479 0.461215C94.2988 0.153741 95.1315 0 96.0447 0C96.9438 0 97.7684 0.153741 98.52 0.461215C99.2863 0.754053 99.9413 1.16402 100.486 1.69113C101.031 2.21824 101.452 2.84786 101.746 3.57996C102.056 4.29738 102.21 5.08802 102.21 5.95188C102.21 6.8158 102.056 7.61375 101.746 8.34584C101.452 9.06333 101.031 9.68557 100.486 10.2127C99.9413 10.7398 99.2863 11.1498 98.52 11.4426C97.7684 11.7354 96.9438 11.8819 96.0447 11.8819C95.1463 11.8819 94.321 11.7354 93.5701 11.4426C92.8185 11.1498 92.1702 10.7398 91.6251 10.2127C91.08 9.68557 90.6529 9.06333 90.3439 8.34584C90.0489 7.61375 89.9014 6.8158 89.9014 5.95188ZM92.5094 5.95188C92.5094 6.46439 92.5905 6.94026 92.7521 7.37949C92.9291 7.81872 93.1718 8.19941 93.4816 8.52155C93.7906 8.84368 94.1594 9.09991 94.5865 9.29028C95.0283 9.46592 95.5144 9.55381 96.0447 9.55381C96.575 9.55381 97.0544 9.47329 97.4815 9.31219C97.9233 9.13648 98.2987 8.89493 98.6085 8.58746C98.9176 8.26532 99.1609 7.88464 99.3373 7.44541C99.5143 7.00611 99.6028 6.50827 99.6028 5.95188C99.6028 5.39549 99.5069 4.89771 99.3151 4.45842C99.1388 4.00452 98.8881 3.62383 98.5642 3.31636C98.2397 2.99423 97.8643 2.75267 97.4372 2.59164C97.0101 2.41593 96.5455 2.32805 96.0447 2.32805C95.5439 2.32805 95.0725 2.41593 94.6307 2.59164C94.2036 2.75267 93.8275 2.99423 93.5037 3.31636C93.1939 3.62383 92.9512 4.00452 92.7742 4.45842C92.5979 4.89771 92.5094 5.39549 92.5094 5.95188Z" fill="#3981F1"/>
<path d="M103.75 0.263551H106.269V1.51543C106.784 1.03225 107.337 0.658885 107.926 0.395327C108.516 0.131776 109.179 0 109.915 0C110.74 0 111.499 0.153741 112.192 0.461215C112.898 0.754053 113.502 1.17134 114.003 1.7131C114.504 2.2402 114.895 2.86983 115.174 3.60186C115.455 4.31935 115.594 5.10269 115.594 5.95188C115.594 6.83041 115.44 7.63572 115.13 8.36781C114.836 9.08524 114.431 9.70754 113.915 10.2347C113.399 10.7471 112.78 11.1498 112.059 11.4426C111.352 11.7354 110.593 11.8819 109.783 11.8819C109.061 11.8819 108.412 11.7721 107.838 11.5524C107.263 11.3328 106.74 11.0253 106.269 10.63V16.0767H103.75V0.263551ZM109.407 9.55381C109.908 9.55381 110.372 9.47329 110.799 9.31219C111.241 9.15115 111.624 8.9169 111.948 8.60943C112.272 8.2873 112.523 7.90661 112.7 7.46731C112.891 7.01341 112.987 6.50097 112.987 5.92998C112.987 5.40286 112.906 4.91969 112.744 4.48039C112.582 4.02649 112.346 3.6458 112.037 3.33834C111.742 3.0162 111.388 2.76728 110.976 2.59164C110.563 2.41593 110.107 2.32805 109.606 2.32805C108.84 2.32805 108.162 2.51105 107.573 2.87714C106.998 3.24315 106.564 3.68245 106.269 4.19489V7.66499C106.564 8.27999 106.984 8.7485 107.529 9.07063C108.074 9.39277 108.7 9.55381 109.407 9.55381Z" fill="#3981F1"/>
<path d="M116.844 5.95188C116.844 5.08802 116.991 4.29738 117.286 3.57996C117.581 2.84786 118 2.21824 118.545 1.69113C119.09 1.16402 119.739 0.754053 120.49 0.461215C121.241 0.153741 122.074 0 122.987 0C123.885 0 124.711 0.153741 125.462 0.461215C126.228 0.754053 126.884 1.16402 127.429 1.69113C127.974 2.21824 128.394 2.84786 128.689 3.57996C128.998 4.29738 129.153 5.08802 129.153 5.95188C129.153 6.8158 128.998 7.61375 128.689 8.34584C128.394 9.06333 127.974 9.68557 127.429 10.2127C126.884 10.7398 126.228 11.1498 125.462 11.4426C124.711 11.7354 123.885 11.8819 122.987 11.8819C122.089 11.8819 121.263 11.7354 120.512 11.4426C119.761 11.1498 119.113 10.7398 118.567 10.2127C118.022 9.68557 117.595 9.06333 117.286 8.34584C116.991 7.61375 116.844 6.8158 116.844 5.95188ZM119.451 5.95188C119.451 6.46439 119.532 6.94026 119.695 7.37949C119.872 7.81872 120.114 8.19941 120.424 8.52155C120.733 8.84368 121.101 9.09991 121.529 9.29028C121.971 9.46592 122.457 9.55381 122.987 9.55381C123.517 9.55381 123.996 9.47329 124.423 9.31219C124.866 9.13648 125.241 8.89493 125.55 8.58746C125.86 8.26532 126.103 7.88464 126.28 7.44541C126.457 7.00611 126.545 6.50827 126.545 5.95188C126.545 5.39549 126.449 4.89771 126.258 4.45842C126.081 4.00452 125.83 3.62383 125.506 3.31636C125.182 2.99423 124.807 2.75267 124.379 2.59164C123.952 2.41593 123.488 2.32805 122.987 2.32805C122.486 2.32805 122.015 2.41593 121.573 2.59164C121.145 2.75267 120.77 2.99423 120.446 3.31636C120.136 3.62383 119.894 4.00452 119.717 4.45842C119.54 4.89771 119.451 5.39549 119.451 5.95188Z" fill="#3981F1"/>
<path d="M130.717 0.263672H135.622C137.228 0.263672 138.436 0.490622 139.247 0.944522C140.057 1.39842 140.462 2.18176 140.462 3.29451C140.462 3.82163 140.344 4.26823 140.108 4.63424C139.873 5.00032 139.563 5.32976 139.181 5.62256C139.726 5.82761 140.131 6.17165 140.396 6.65482C140.661 7.12339 140.794 7.66511 140.794 8.28011C140.794 9.42217 140.389 10.2787 139.578 10.8497C138.768 11.4061 137.626 11.6843 136.153 11.6843H130.717V0.263672ZM133.236 6.96229V9.42217H135.91C136.661 9.42217 137.228 9.32698 137.612 9.1366C137.995 8.94629 138.186 8.63883 138.186 8.2142C138.186 7.7603 138.002 7.43816 137.634 7.24785C137.28 7.05748 136.727 6.96229 135.976 6.96229H133.236ZM133.236 2.52584V4.78798H136.197C136.713 4.78798 137.118 4.69286 137.413 4.50248C137.708 4.31217 137.854 4.01931 137.854 3.62395C137.854 3.15545 137.656 2.85528 137.258 2.72352C136.875 2.59176 136.308 2.52584 135.556 2.52584H133.236Z" fill="#3981F1"/>
</svg>
