<svg width="178" height="95" viewBox="0 0 178 95" fill="none" xmlns="http://www.w3.org/2000/svg">
<rect width="178" height="95" rx="5" fill="#F0F6F9"/>
<path d="M26.8846 36.6601H21.5107V45.7527H19V34.332H29.3954V45.7527H26.8846V36.6601Z" fill="#F52A13"/>
<path d="M31.8389 34.3319H34.3496V35.5838C34.8635 35.1006 35.4141 34.7272 36.0014 34.4637C36.5887 34.2001 37.2494 34.0684 37.9836 34.0684C38.8058 34.0684 39.562 34.2221 40.2521 34.5296C40.9569 34.8224 41.5588 35.2397 42.058 35.7815C42.5573 36.3086 42.9464 36.9382 43.2254 37.6702C43.5043 38.3877 43.6438 39.1711 43.6438 40.0202C43.6438 40.8988 43.4896 41.7041 43.1813 42.4362C42.8877 43.1536 42.4838 43.7759 41.9699 44.303C41.4561 44.8155 40.8394 45.2181 40.12 45.511C39.4152 45.8038 38.659 45.9502 37.8514 45.9502C37.132 45.9502 36.4859 45.8404 35.9133 45.6208C35.3407 45.4011 34.8195 45.0937 34.3496 44.6984V50.1451H31.8389V34.3319ZM37.4771 43.6222C37.9763 43.6222 38.4388 43.5416 38.8646 43.3805C39.305 43.2195 39.6868 42.9853 40.0098 42.6778C40.3328 42.3557 40.5824 41.975 40.7586 41.5357C40.9495 41.0818 41.045 40.5693 41.045 39.9983C41.045 39.4712 40.9642 38.988 40.8027 38.5487C40.6412 38.0948 40.4063 37.7142 40.0979 37.4067C39.8043 37.0846 39.4519 36.8356 39.0408 36.66C38.6296 36.4843 38.1745 36.3964 37.6753 36.3964C36.9117 36.3964 36.2363 36.5794 35.649 36.9455C35.0764 37.3115 34.6433 37.7508 34.3496 38.2633V41.7334C34.6433 42.3484 35.0617 42.8169 35.605 43.139C36.1482 43.4611 36.7723 43.6222 37.4771 43.6222Z" fill="#F52A13"/>
<path d="M44.9482 40.0202C44.9482 39.1564 45.0951 38.3657 45.3887 37.6483C45.6824 36.9162 46.1009 36.2866 46.6441 35.7595C47.1874 35.2324 47.8334 34.8224 48.5823 34.5296C49.3311 34.2221 50.1606 34.0684 51.071 34.0684C51.9666 34.0684 52.7889 34.2221 53.5377 34.5296C54.3012 34.8224 54.9545 35.2324 55.4978 35.7595C56.0411 36.2866 56.4596 36.9162 56.7532 37.6483C57.0616 38.3657 57.2157 39.1564 57.2157 40.0202C57.2157 40.8842 57.0616 41.6821 56.7532 42.4142C56.4596 43.1317 56.0411 43.7539 55.4978 44.281C54.9545 44.8082 54.3012 45.2181 53.5377 45.511C52.7889 45.8038 51.9666 45.9502 51.071 45.9502C50.1753 45.9502 49.3531 45.8038 48.6043 45.511C47.8554 45.2181 47.2094 44.8082 46.6661 44.281C46.1229 43.7539 45.6971 43.1317 45.3887 42.4142C45.0951 41.6821 44.9482 40.8842 44.9482 40.0202ZM47.5471 40.0202C47.5471 40.5328 47.6279 41.0086 47.7894 41.4479C47.9656 41.8871 48.2078 42.2678 48.5162 42.5899C48.8245 42.912 49.1916 43.1683 49.6174 43.3586C50.0579 43.5343 50.5424 43.6222 51.071 43.6222C51.5996 43.6222 52.0767 43.5416 52.5025 43.3805C52.943 43.2048 53.3174 42.9633 53.6258 42.6558C53.9341 42.3337 54.1764 41.953 54.3526 41.5138C54.5287 41.0745 54.6168 40.5766 54.6168 40.0202C54.6168 39.4638 54.5214 38.9661 54.3306 38.5268C54.1544 38.0729 53.9048 37.6922 53.5817 37.3847C53.2587 37.0626 52.8843 36.821 52.4585 36.66C52.0327 36.4843 51.5702 36.3964 51.071 36.3964C50.5718 36.3964 50.1019 36.4843 49.6614 36.66C49.2356 36.821 48.8612 37.0626 48.5382 37.3847C48.2299 37.6922 47.9876 38.0729 47.8114 38.5268C47.6352 38.9661 47.5471 39.4638 47.5471 40.0202Z" fill="#F52A13"/>
<path d="M57.8857 43.4246H59.2116C59.7273 42.7657 60.0735 42.0117 60.2503 41.1625C60.4271 40.3132 60.5154 39.3542 60.5154 38.2853V34.332H69.7525V43.4246H71.3657V48.3663H69.0233V45.7527H60.2282V48.3663H57.8857V43.4246ZM67.2333 43.4246V36.6601H62.902V39.5811C62.902 40.284 62.8063 40.9868 62.6147 41.6895C62.4233 42.3777 62.1581 42.9561 61.8193 43.4246H67.2333Z" fill="#3981F1"/>
<path d="M71.877 40.0202C71.877 39.1564 72.0243 38.3657 72.3189 37.6483C72.6135 36.9162 73.0334 36.2866 73.5785 35.7595C74.1236 35.2324 74.7718 34.8224 75.5231 34.5296C76.2745 34.2221 77.1069 34.0684 78.0203 34.0684C78.9189 34.0684 79.7439 34.2221 80.4952 34.5296C81.2613 34.8224 81.9169 35.2324 82.462 35.7595C83.0071 36.2866 83.427 36.9162 83.7216 37.6483C84.031 38.3657 84.1856 39.1564 84.1856 40.0202C84.1856 40.8842 84.031 41.6821 83.7216 42.4142C83.427 43.1317 83.0071 43.7539 82.462 44.281C81.9169 44.8082 81.2613 45.2181 80.4952 45.511C79.7439 45.8038 78.9189 45.9502 78.0203 45.9502C77.1216 45.9502 76.2965 45.8038 75.5452 45.511C74.7939 45.2181 74.1457 44.8082 73.6006 44.281C73.0555 43.7539 72.6283 43.1317 72.3189 42.4142C72.0243 41.6821 71.877 40.8842 71.877 40.0202ZM74.4845 40.0202C74.4845 40.5328 74.5655 41.0086 74.7276 41.4479C74.9044 41.8871 75.1475 42.2678 75.4568 42.5899C75.7662 42.912 76.1345 43.1683 76.5618 43.3586C77.0037 43.5343 77.4899 43.6222 78.0203 43.6222C78.5506 43.6222 79.0294 43.5416 79.4566 43.3805C79.8986 43.2048 80.2742 42.9633 80.5837 42.6558C80.893 42.3337 81.1361 41.953 81.3129 41.5138C81.4896 41.0745 81.5781 40.5766 81.5781 40.0202C81.5781 39.4638 81.4823 38.9661 81.2908 38.5268C81.114 38.0729 80.8636 37.6922 80.5394 37.3847C80.2153 37.0626 79.8397 36.821 79.4125 36.66C78.9852 36.4843 78.5212 36.3964 78.0203 36.3964C77.5194 36.3964 77.0479 36.4843 76.606 36.66C76.1787 36.821 75.803 37.0626 75.4789 37.3847C75.1696 37.6922 74.9265 38.0729 74.7497 38.5268C74.5729 38.9661 74.4845 39.4638 74.4845 40.0202Z" fill="#3981F1"/>
<path d="M85.7451 34.332H88.2643V38.9662L93.2363 34.332H96.5289L90.938 39.4933L96.728 45.7527H93.5018L89.1043 41.0526L88.2643 41.8652V45.7527H85.7451V34.332Z" fill="#3981F1"/>
<path d="M97.5234 34.332H108.352V36.6601H104.197V45.7527H101.678V36.6601H97.5234V34.332Z" fill="#3981F1"/>
<path d="M108.901 40.0202C108.901 39.1564 109.049 38.3657 109.344 37.6483C109.638 36.9162 110.058 36.2866 110.603 35.7595C111.148 35.2324 111.796 34.8224 112.548 34.5296C113.299 34.2221 114.132 34.0684 115.045 34.0684C115.944 34.0684 116.768 34.2221 117.52 34.5296C118.286 34.8224 118.941 35.2324 119.486 35.7595C120.031 36.2866 120.452 36.9162 120.746 37.6483C121.056 38.3657 121.21 39.1564 121.21 40.0202C121.21 40.8842 121.056 41.6821 120.746 42.4142C120.452 43.1317 120.031 43.7539 119.486 44.281C118.941 44.8082 118.286 45.2181 117.52 45.511C116.768 45.8038 115.944 45.9502 115.045 45.9502C114.146 45.9502 113.321 45.8038 112.57 45.511C111.818 45.2181 111.17 44.8082 110.625 44.281C110.08 43.7539 109.653 43.1317 109.344 42.4142C109.049 41.6821 108.901 40.8842 108.901 40.0202ZM111.509 40.0202C111.509 40.5328 111.591 41.0086 111.752 41.4479C111.929 41.8871 112.172 42.2678 112.482 42.5899C112.791 42.912 113.159 43.1683 113.586 43.3586C114.028 43.5343 114.514 43.6222 115.045 43.6222C115.575 43.6222 116.054 43.5416 116.481 43.3805C116.923 43.2048 117.299 42.9633 117.608 42.6558C117.918 42.3337 118.161 41.953 118.337 41.5138C118.514 41.0745 118.603 40.5766 118.603 40.0202C118.603 39.4638 118.507 38.9661 118.315 38.5268C118.139 38.0729 117.888 37.6922 117.564 37.3847C117.24 37.0626 116.864 36.821 116.437 36.66C116.01 36.4843 115.546 36.3964 115.045 36.3964C114.544 36.3964 114.073 36.4843 113.631 36.66C113.204 36.821 112.828 37.0626 112.504 37.3847C112.194 37.6922 111.951 38.0729 111.774 38.5268C111.598 38.9661 111.509 39.4638 111.509 40.0202Z" fill="#3981F1"/>
<path d="M122.75 34.3319H125.269V35.5838C125.784 35.1006 126.337 34.7272 126.926 34.4637C127.516 34.2001 128.179 34.0684 128.915 34.0684C129.74 34.0684 130.499 34.2221 131.192 34.5296C131.898 34.8224 132.502 35.2397 133.003 35.7815C133.504 36.3086 133.895 36.9382 134.174 37.6702C134.455 38.3877 134.594 39.1711 134.594 40.0202C134.594 40.8988 134.44 41.7041 134.13 42.4362C133.836 43.1536 133.431 43.7759 132.915 44.303C132.399 44.8155 131.78 45.2181 131.059 45.511C130.352 45.8038 129.593 45.9502 128.783 45.9502C128.061 45.9502 127.412 45.8404 126.838 45.6208C126.263 45.4011 125.74 45.0937 125.269 44.6984V50.1451H122.75V34.3319ZM128.407 43.6222C128.908 43.6222 129.372 43.5416 129.799 43.3805C130.241 43.2195 130.624 42.9853 130.948 42.6778C131.272 42.3557 131.523 41.975 131.7 41.5357C131.891 41.0818 131.987 40.5693 131.987 39.9983C131.987 39.4712 131.906 38.988 131.744 38.5487C131.582 38.0948 131.346 37.7142 131.037 37.4067C130.742 37.0846 130.388 36.8356 129.976 36.66C129.563 36.4843 129.107 36.3964 128.606 36.3964C127.84 36.3964 127.162 36.5794 126.573 36.9455C125.998 37.3115 125.564 37.7508 125.269 38.2633V41.7334C125.564 42.3484 125.984 42.8169 126.529 43.139C127.074 43.4611 127.7 43.6222 128.407 43.6222Z" fill="#3981F1"/>
<path d="M135.844 40.0202C135.844 39.1564 135.991 38.3657 136.286 37.6483C136.581 36.9162 137 36.2866 137.545 35.7595C138.09 35.2324 138.739 34.8224 139.49 34.5296C140.241 34.2221 141.074 34.0684 141.987 34.0684C142.885 34.0684 143.711 34.2221 144.462 34.5296C145.228 34.8224 145.884 35.2324 146.429 35.7595C146.974 36.2866 147.394 36.9162 147.689 37.6483C147.998 38.3657 148.153 39.1564 148.153 40.0202C148.153 40.8842 147.998 41.6821 147.689 42.4142C147.394 43.1317 146.974 43.7539 146.429 44.281C145.884 44.8082 145.228 45.2181 144.462 45.511C143.711 45.8038 142.885 45.9502 141.987 45.9502C141.089 45.9502 140.263 45.8038 139.512 45.511C138.761 45.2181 138.113 44.8082 137.567 44.281C137.022 43.7539 136.595 43.1317 136.286 42.4142C135.991 41.6821 135.844 40.8842 135.844 40.0202ZM138.451 40.0202C138.451 40.5328 138.532 41.0086 138.695 41.4479C138.872 41.8871 139.114 42.2678 139.424 42.5899C139.733 42.912 140.101 43.1683 140.529 43.3586C140.971 43.5343 141.457 43.6222 141.987 43.6222C142.517 43.6222 142.996 43.5416 143.423 43.3805C143.866 43.2048 144.241 42.9633 144.55 42.6558C144.86 42.3337 145.103 41.953 145.28 41.5138C145.457 41.0745 145.545 40.5766 145.545 40.0202C145.545 39.4638 145.449 38.9661 145.258 38.5268C145.081 38.0729 144.83 37.6922 144.506 37.3847C144.182 37.0626 143.807 36.821 143.379 36.66C142.952 36.4843 142.488 36.3964 141.987 36.3964C141.486 36.3964 141.015 36.4843 140.573 36.66C140.145 36.821 139.77 37.0626 139.446 37.3847C139.136 37.6922 138.894 38.0729 138.717 38.5268C138.54 38.9661 138.451 39.4638 138.451 40.0202Z" fill="#3981F1"/>
<path d="M149.717 34.332H154.622C156.228 34.332 157.436 34.559 158.247 35.0129C159.057 35.4668 159.462 36.2501 159.462 37.3629C159.462 37.89 159.344 38.3366 159.108 38.7026C158.873 39.0687 158.563 39.3981 158.181 39.6909C158.726 39.896 159.131 40.24 159.396 40.7232C159.661 41.1918 159.794 41.7335 159.794 42.3485C159.794 43.4905 159.389 44.3471 158.578 44.9181C157.768 45.4745 156.626 45.7527 155.153 45.7527H149.717V34.332ZM152.236 41.0306V43.4905H154.91C155.661 43.4905 156.228 43.3953 156.612 43.205C156.995 43.0147 157.186 42.7072 157.186 42.2826C157.186 41.8287 157.002 41.5065 156.634 41.3162C156.28 41.1258 155.727 41.0306 154.976 41.0306H152.236ZM152.236 36.5942V38.8563H155.197C155.713 38.8563 156.118 38.7612 156.413 38.5708C156.708 38.3805 156.854 38.0877 156.854 37.6923C156.854 37.2238 156.656 36.9236 156.258 36.7919C155.875 36.6601 155.308 36.5942 154.556 36.5942H152.236Z" fill="#3981F1"/>
</svg>
